Patient5_TMGait_0pt45_1_right_06_EMG.mot
version=1
nRows=39
nColumns=33
inDegrees=no
endheader
time	1LAddLong	2LGlutMax	3LGlutMed	4LIliopsoas	5LSemiMemb	6LBicFemLong	7LRecFem	8LTensFascLat	9LVastMed	10LVasLat	11LGasMed	12lGasLat	13LTibAnt	14LPeroneusLong	15LSol	16LTibPost	17RAddLong	18RGlutMax	19RGlutMed	20RIliopsoas	21RSemiMemb	22RBicFemLong	23RRecFem	24RTensFascLat	25RVastMed	26RVasLat	27RGasMed	28RGasLat	29RTibAnt	30RPeroneusLong	31RSol	32RTibPost
9.62	0.003052	-0.001831	-0.11841	-0.005188	0.001526	-0.060883	-0.024109	-0.080719	-0.031586	0.015564	-0.029907	-0.006866	-0.032654	-0.008698	-0.083466	-0.003662	-0.022736	-0.00824	-0.008545	0.16129	0.018158	0.008545	-0.008392	-0.12878	-0.025482	0.001831	0.003052	-0.005188	-0.028839	-0.032806	0.01297	-0.015564
9.621	0.029755	-0.012054	-0.099945	0.027618	-0.006714	-0.21378	-0.028229	-0.018768	-0.010834	0.001831	-0.019073	-0.011139	0.04425	-0.007935	-0.10513	0.079346	-0.024719	-0.007324	0.027618	-0.018768	-0.009613	0.007172	-0.010681	-0.031738	-0.024261	0.003357	0.003357	0.000153	-0.003357	-0.033112	0.010681	-0.015869
9.622	0.080261	-0.006866	-0.084381	0.030518	0.019073	-0.20065	-0.026703	-0.030975	-0.008545	-0.011597	-0.03891	-0.00824	0.0914	0.006866	-0.050964	-0.075226	-0.018921	-0.011902	-0.052643	0.096741	-0.002289	0.020447	-0.007935	0.091095	-0.014343	0.006409	0.00061	0.010071	0.00061	-0.026245	0.029449	-0.015106
9.623	0.043182	-0.004578	-0.15778	0.020752	0.023193	-0.14206	-0.041656	-0.15198	-0.001221	-0.006104	-0.011444	-0.011902	0.04303	0.011749	0.022125	-0.024567	-0.015869	-0.004883	-0.04303	-0.018768	-0.000916	0.018005	-0.005798	0.066681	-0.001068	0.005341	0.009308	0.005341	-0.013275	-0.006561	0.014801	-0.010681
9.624	0.25971	0.00351	-0.15228	0.011902	0.023804	-0.12726	-0.042419	-0.1709	0.005341	-0.005646	0.03952	0.001984	0.013123	0.014343	0.080109	-0.068512	-0.00473	-0.002899	-0.020142	0.031738	-0.001526	-0.000153	-0.003357	0.053711	-0.002441	0.003357	0.000916	0.034485	-0.010376	-0.002747	-0.012512	-0.012665
9.625	-0.083618	0.002441	0.000305	0.019531	0.022278	-0.012207	-0.040131	-0.023956	0.006409	-0.001221	0.003662	0.002747	-0.014801	0.011597	0.074921	-0.047607	-0.004425	-0.002899	-0.062714	-0.0383	-0.01709	0.01236	-0.00061	0.049591	-0.006104	0.003662	-0.000916	0.046844	-0.001526	0.003052	-0.024261	-0.012207
9.626	-0.081024	0.013123	0.053253	0.004883	0.031128	0.018768	-0.028534	-0.019989	-0.000916	-0.02243	-0.046844	0.001526	0.002441	0.01236	0.049438	-0.073395	0.002289	-0.007782	-0.064392	0.045166	-0.035248	0.007629	-0.002289	0.045166	-0.003967	0.000763	0.003815	0.044556	-0.002899	0.002747	-0.038147	-0.01358
9.627	-0.02655	0.020752	0.095062	0.019989	-0.018311	0.078278	-0.018768	0.054932	-0.001831	-0.055237	-0.11261	-0.005951	0.007782	0.007019	0.04364	-0.033112	0.003052	-0.002747	-0.030518	0.11017	-0.050964	0.007019	-0.014343	0.029144	-0.005035	-0.00351	0.005493	-0.000916	-0.014496	-0.002747	-0.04425	-0.018005
9.628	0.024719	0.023346	0.034637	0.017395	0.023193	0.19791	-0.014343	0.12695	-0.010071	-0.06897	-0.12466	-0.011444	0.013428	0.004272	0.028687	0.18906	0.007324	-0.00351	-0.007782	-0.031586	-0.031738	0.006866	-0.012665	0.025635	-0.016785	-0.004578	0.002747	-0.014496	-0.011139	-0.002441	-0.026245	-0.011139
9.629	0.077362	0.019226	-0.036926	-0.004578	0.072479	0.22827	-0.009155	0.066223	-0.011444	-0.065613	-0.16159	-0.005646	0.023041	0.00351	-0.001526	0.005035	0.00885	-0.005798	0.023041	-0.046844	0.004425	0.002594	-0.011139	0.024567	-0.00473	-0.000458	0.000153	-0.021667	-0.00473	-0.002289	-0.020142	-0.003357
9.63	0.13962	0.01709	-0.08728	0.000458	0.010071	0.24811	-0.01236	-0.032196	-0.007629	-0.032654	-0.00061	-0.000458	0.016785	0.002747	-0.020142	-0.004425	0.011139	-0.008392	0.025787	-0.060425	-0.012512	0.001068	-0.018921	0.00824	-0.003052	-0.008545	0.000763	-0.012054	-0.005798	-0.002594	-0.015259	-0.003357
9.631	0.15747	0.012665	-0.013885	0.016327	-0.019836	0.14954	-0.006561	-0.019684	-0.002747	-0.02594	0.024414	0.01709	0.013275	-0.001831	0.042419	0.072937	0.011597	-0.008698	0.014191	0.048065	0.009155	-0.002747	-0.019073	0.028839	-0.00351	0.000153	0.001984	-0.00824	0.00473	-0.00061	-0.008698	-0.006104
9.632	0.22736	0.011597	0.023041	0.013733	-0.001373	0.046234	-0.001068	0.015259	0.002136	-0.017242	-0.061493	0.027008	0.018005	0.004883	0.082245	-0.15686	0.00824	-0.006866	-0.011597	-0.033569	0.030975	0.005493	-0.024567	0.033722	-0.00473	-0.001068	0.004425	-0.007019	0.008087	-0.005646	-0.005493	-0.001221
9.633	0.074158	0.002289	0.005341	0.010071	-0.00885	-0.026093	0.003815	0.007935	0.012512	0.002289	-0.13596	0.024872	0.016632	0.018005	0.073242	0.089874	0.008698	-0.001526	-0.016937	-0.080566	0.055084	-0.001068	-0.020294	0.055389	-0.019379	-0.009613	0.004883	-0.002747	0.008392	-0.007935	-0.002594	0.002747
9.634	0.013275	0.005035	0.034485	-0.010986	-0.026398	-0.09491	0.001678	-0.005646	0.018768	-0.007019	-0.17654	-0.007477	0.046692	0.020294	0.045013	0.02655	-0.000763	-0.003204	-0.025635	0.078583	0.047913	-0.000916	-0.007324	0.043945	-0.005188	-0.014191	-0.004272	-0.00885	0.007629	-0.00061	0.023956	-0.005188
9.635	0.021667	0.015106	-0.036011	-0.011139	-0.020294	-0.055695	0.00946	-0.066223	0.019379	-0.015106	0.076294	-0.017548	0.011902	0.014343	-0.034637	-0.020752	0.004425	-0.002289	-0.024719	-0.078735	0.092621	-0.001373	0.001221	0.042114	0.001984	-0.012054	-0.003662	-0.000305	0.002441	-0.005188	0.029449	0.000153
9.636	0.021667	0.016479	-0.045929	-0.003815	-0.018463	0.034943	-0.001831	-0.070953	0.019073	-0.009918	0.11871	-0.010986	-0.052948	0.013275	-0.044556	0.088806	0.004272	-0.007019	-0.017242	-0.10056	0.29312	0.003662	0.003967	0.043335	-0.00412	-0.000763	0.002594	-0.007782	-0.006714	-0.003815	-0.00351	0.003815
9.637	0.009613	0.014496	-0.041962	0.012665	0.003967	0.090332	0.003204	-0.12207	0.014343	0.020752	0.21851	-0.000153	-0.09552	0.027466	-0.036926	0.004425	0.007935	-0.005951	0.01236	0.02655	0.45197	0.014648	0.015717	0.041656	-0.005951	-0.011597	0.003052	-0.014191	-0.007019	0.006866	-0.018768	0.001984
9.638	0.019226	0.009918	-0.019073	0.015259	0.010223	0.15549	-0.004883	-0.11139	0.002899	0.027924	0.072632	-0.007019	-0.13245	0.020447	-0.01297	-0.00473	0.003815	-0.004883	0.014954	-0.029449	0.53741	0.007629	0.012512	0.050964	-0.004272	-0.002441	0.000763	-0.014343	-0.009003	0.004272	-0.022278	0.007935
9.639	0.008545	-0.00061	0.025787	0.010376	0.019836	0.11078	-0.018463	0.01358	-0.003204	0.024109	-0.028534	0.005951	-0.033112	-0.006256	0.075684	0.18158	0.00473	-0.001831	-0.050964	0.15259	0.55161	0.002136	0.014496	0.059662	-0.001221	0.003357	0.001526	-0.021057	-0.005951	-0.012665	-0.019073	0.008087
9.64	-0.01358	-0.004425	0.024261	-0.016174	0.022888	0.075989	-0.010681	0.009155	-0.003815	0.023804	0.045319	-0.009155	0.082855	-0.002136	-0.016632	0.032043	0.005035	-0.003357	0.018921	-0.018921	0.51086	0.014648	0.016174	0.017395	-0.005493	0.009766	0.005341	-0.025787	-0.001984	-0.027008	-0.016022	0.005493
9.641	-0.045776	0.002441	0.088348	-0.020905	0.025482	-0.012054	-0.018768	0.027313	-0.011139	0.015106	0.094147	0.007935	0.19898	0.025787	0.007019	-0.032349	0.008392	-0.003357	-0.009918	-0.1651	0.32776	0.00885	0.02182	-0.015717	-0.008545	0.007477	0.005035	-0.013123	0.007477	-0.011902	-0.016937	0.007172
9.642	-0.046997	0.001678	0.080719	-0.0177	0.023804	-0.041351	-0.014343	-0.019989	-0.01709	0.006866	0.047455	0.025635	0.17609	0.04364	-0.063171	-0.067902	0.00946	-0.007935	0.029755	0.054169	-0.37598	0.001068	0.01709	-0.097351	-0.020599	0.006409	0.005035	-0.006104	-0.00061	-0.009918	-0.012207	0.002441
9.643	-0.04715	0.000458	-0.006714	-0.021057	0.002899	0.003967	-0.00351	-0.008087	-0.020752	0.008698	-0.045624	0.019073	0.090332	0.025635	-0.050964	-0.042572	0.013733	-0.004578	0.061646	-0.084229	-0.78491	-0.002136	0.008545	-0.21118	-0.026398	0.003967	0.008392	0.000916	-0.002899	0.000763	-0.011139	0.012665
9.644	-0.058441	0.003815	-0.063324	-0.016632	0.016022	0.037079	0.004883	0.037994	-0.028687	0.005035	-0.070343	0.007019	0.015869	-0.012512	0.062561	-0.088043	0.025482	-0.004272	0.045319	-0.02533	-0.47577	-0.000916	0.010986	-0.26504	-0.021515	0.003815	-0.003052	-0.00061	-0.013123	-0.004578	-0.001831	0.007935
9.645	-0.081787	-0.005188	-0.041351	-0.017548	0.007477	0.093536	0.007935	-0.062561	-0.032654	0.007629	-0.051575	-0.000916	-0.041199	-0.0354	0.11368	-0.031433	0.018158	-0.003662	0.036163	0.026398	-0.18219	0.006561	0.010071	-0.27939	-0.020294	0.002136	0.000916	-0.018005	-0.013428	-0.007019	-0.002899	0.010223
9.646	-0.093231	-0.007629	-0.034943	0.03067	0.012665	0.022278	-0.004272	-0.17441	-0.020447	0.00473	-0.071259	0.004425	-0.042114	-0.038452	0.082397	-0.083771	0.018616	-0.002136	-0.001984	-0.00351	-0.062103	0.007019	0.006714	-0.28198	-0.016937	-0.00412	0.001221	-0.038147	-0.011139	-0.009918	-0.004425	0.008392
9.647	-0.077362	-0.007477	-0.022736	0.015869	0.015259	0.065002	-0.005035	-0.078583	-0.02182	0.003052	-0.021362	0.009003	-0.014801	-0.011444	0.035706	0.073395	0.023193	0.000305	-0.023651	-0.008392	-0.068817	0.003052	0.020447	-0.13138	-0.010986	-0.001678	-0.002441	-0.028076	-0.022125	-0.001221	-0.00824	-0.005493
9.648	-0.077209	-0.009003	-0.083771	0.033417	0.040283	0.097961	0.007477	-0.17517	-0.015869	0.006256	0.13473	-0.01358	-0.013275	0.003052	-0.058899	0.049286	0.023193	-0.000305	-0.031891	-0.011597	-0.028381	0.006104	0.00824	0.048676	0.003662	-0.003662	-0.002899	-0.000153	-0.0383	0.010834	-0.005341	-0.00473
9.649	-0.062408	-0.006866	-0.14542	0.01236	0.050507	0.17731	0	-0.24902	-0.010681	0.017548	0.075073	-0.009918	-0.011292	0.014954	-0.050964	-0.077057	0.033569	-0.003052	-0.014801	0.011292	-0.025482	0.010681	0.010834	0.21668	-0.015564	0.006104	0.007172	0.007324	-0.035858	0.00885	-0.004578	-0.003357
9.65	-0.048676	-0.006409	-0.062866	-0.004578	0.060577	0.1976	0.004272	-0.1683	-0.001068	0.016937	0.035706	-0.001068	-0.050049	0.016022	-0.028534	-0.061493	0.028534	-0.005493	0.022125	-0.040588	-0.029449	0.001831	0.00473	0.28946	-0.017242	0.007019	0.001831	0.013733	-0.018616	0.005951	-0.014343	-0.006714
9.651	-0.041351	-0.005341	0.058136	0.009918	0.063019	0.15381	0.000305	0.047302	0.007324	-0.016022	-0.031891	-0.000458	-0.061035	0.018616	0.007477	-0.12009	0.032043	-0.002136	0.00351	0.033722	-0.006256	0.00824	0.002747	0.29556	-0.009613	0.004272	-0.005493	0.013123	-0.015869	0.013275	-0.003357	-0.005035
9.652	-0.017395	-0.00885	0.1564	-0.002899	0.019531	0.053558	-0.009613	0.22736	0.004272	-0.02594	-0.021362	-0.001984	-0.026093	0.02594	0.034637	0.092468	0.03479	-0.007477	-0.04837	-0.046692	0.003662	0.00824	0.003662	0.24994	-0.014191	-0.010376	-0.003357	-0.000763	-0.011292	0.012665	0.001221	0.002594
9.653	-0.010681	0.00412	0.052338	0.007477	-0.079498	-0.046692	-0.005798	0.077972	0.011444	-0.010376	-0.024109	0.001221	-0.014191	0.027313	0.055389	0.02594	0.03891	-0.004578	-0.010986	-0.098419	-0.014038	0.002594	0.002441	0.21271	-0.00885	0.003357	-0.003357	-0.013275	-0.006104	0.006256	0.003815	0.007172
9.654	-0.019226	0.010071	-0.032501	-0.006409	-0.072021	-0.041351	-0.00824	-0.18082	0.008545	0.004425	-0.03006	-0.000916	0.021515	0.006714	-0.001068	-0.098572	0.039215	-0.002441	0.011139	0.14481	0.002441	0.001984	0.004578	0.17731	-0.011139	0.001984	-0.007324	0.001526	-0.007935	0.008545	0.010834	0.010223
9.655	-0.037537	0.014801	0.010071	-0.003662	-0.028229	-0.09552	-0.003815	-0.19241	0.012054	0.020752	-0.030212	-0.00824	0.009308	0.011749	-0.037231	-0.044861	0.03891	-0.002441	-0.031586	-0.07309	-0.00412	0.003815	0.000763	0.15381	-0.012665	0.00061	-0.002441	0.002899	-0.010986	0.012054	0.010223	0.005188
9.656	-0.027771	0.017853	-0.032043	0.006104	-0.00885	-0.14694	0.000153	-0.22018	0.023651	0.033417	-0.056	-0.009918	-0.061798	0.032349	-0.033417	-0.11749	0.042725	0.001068	-0.025177	0.046539	-0.013275	-0.001526	0.001373	0.044098	-0.017242	0.001984	0.000763	0.001068	0.000458	0.013428	-0.015717	0.002289
9.657	-0.03479	0.019684	-0.028381	0.010834	0.006714	-0.28122	0.001068	-0.23743	0.025787	0.024872	-0.088043	-0.00412	-0.10101	0.024414	-0.011597	0.026855	0.039978	0.000763	-0.006104	-0.023804	-0.010376	-0.001068	0.000305	-0.009613	-0.012665	0.003052	0.012665	0.005188	-0.000763	0.001221	-0.026855	0.007629
9.658	-0.039063	0.021515	0.045624	0.016632	0.001221	-0.38269	0.003357	-0.27191	0.020905	0.019684	-0.071716	-0.005341	-0.10956	0.007935	0.003815	-0.03891	0.038605	-0.000458	-0.024872	0.019226	-0.020599	0.001068	0.001984	-0.044403	-0.022125	-0.007782	0.024872	-0.001678	-0.020142	0.002747	-0.022125	0.002136
